<svg xmlns="http://www.w3.org/2000/svg" width="47.25" height="36.78" viewBox="0 0 47.25 36.78"><defs><style>.cd4abfca-634f-4624-acef-862344a5f7f2{fill:#fff;}</style></defs><title>basket-white</title><g id="438f7ef9-474a-4832-b6a3-e48edfe8fb4c" data-name="Layer 2"><g id="8042a90c-e812-43cc-ac86-cb14321f98cd" data-name="Layer 1"><path class="cd4abfca-634f-4624-acef-862344a5f7f2" d="M47.25,16.44a2,2,0,0,1-2,2h-.66l-2.13,15a3.91,3.91,0,0,1-1.35,2.42,3.86,3.86,0,0,1-2.59.94H8.7a3.86,3.86,0,0,1-2.59-.94,3.91,3.91,0,0,1-1.35-2.42l-2.14-15H2a1.89,1.89,0,0,1-1.4-.58A1.89,1.89,0,0,1,0,16.44V15.13a1.91,1.91,0,0,1,.57-1.4A1.92,1.92,0,0,1,2,13.16H7.46L16.24,1.1A2.55,2.55,0,0,1,18,0a2.59,2.59,0,0,1,2,.49A2.54,2.54,0,0,1,21,2.25a2.57,2.57,0,0,1-.49,2L14,13.16H33.3L26.74,4.22a2.57,2.57,0,0,1-.49-2A2.54,2.54,0,0,1,27.32.52a2.59,2.59,0,0,1,2-.49A2.55,2.55,0,0,1,31,1.1l8.78,12.06h5.49a1.95,1.95,0,0,1,2,2ZM16.41,20.38a2,2,0,1,0-3.94,0v9.18a2,2,0,1,0,3.94,0Zm9.18,0a2,2,0,1,0-3.93,0v9.18a2,2,0,1,0,3.93,0Zm9.19,0a2,2,0,1,0-3.94,0v9.18a2,2,0,1,0,3.94,0Z"/></g></g></svg>