<svg xmlns="http://www.w3.org/2000/svg" width="8.85" height="13.75" viewBox="0 0 8.85 13.75"><defs><style>.dc53f3ef-a61b-4ec6-815f-9ee43d1c013b{fill:#919191;}</style></defs><title>caret-right</title><g id="fe18ec13-acdd-480e-ad5a-8f56c7826d8f" data-name="Layer 2"><g id="6e1b5a44-91a9-494b-bb7e-ebc0a0f390c4" data-name="Layer 1"><path class="dc53f3ef-a61b-4ec6-815f-9ee43d1c013b" d="M2.71,13.45a1,1,0,0,1-.73.3,1,1,0,0,1-.73-.3l-.95-1A1,1,0,0,1,.3,11L4.43,6.88.3,2.75A1,1,0,0,1,0,2a1,1,0,0,1,.3-.73l1-1A1,1,0,0,1,2,0a1,1,0,0,1,.73.3L8.55,6.14a1.05,1.05,0,0,1,0,1.47Z"/></g></g></svg>