<svg xmlns="http://www.w3.org/2000/svg" width="618" height="619" viewBox="0 0 618 619">
  <metadata><?xpacket begin="﻿" id="W5M0MpCehiHzreSzNTczkc9d"?>
<x:xmpmeta xmlns:x="adobe:ns:meta/" x:xmptk="Adobe XMP Core 5.6-c140 79.160451, 2017/05/06-01:08:21        ">
   <rdf:RDF xmlns:rdf="http://www.w3.org/1999/02/22-rdf-syntax-ns#">
      <rdf:Description rdf:about=""/>
   </rdf:RDF>
</x:xmpmeta>
                                                                                                    
                                                                                                    
                                                                                                    
                                                                                                    
                                                                                                    
                                                                                                    
                                                                                                    
                                                                                                    
                                                                                                    
                                                                                                    
                                                                                                    
                                                                                                    
                                                                                                    
                                                                                                    
                                                                                                    
                                                                                                    
                                                                                                    
                                                                                                    
                                                                                                    
                                                                                                    
                           
<?xpacket end="w"?></metadata>
<defs>
    <style>
      .cls-1 {
        fill: #4b6cc1;
        fill-rule: evenodd;
        opacity: 0.03;
      }
    </style>
  </defs>
  <path id="Rounded_Rectangle_3_copy_3" data-name="Rounded Rectangle 3 copy 3" class="cls-1" d="M909.736,175.693a19.514,19.514,0,0,1-.017,27.592L523.28,589.822a19.5,19.5,0,1,1-27.567-27.575L882.151,175.711A19.5,19.5,0,0,1,909.736,175.693Zm165.494,27.486a19.518,19.518,0,0,1-.02,27.592L688.773,617.308a19.5,19.5,0,1,1-27.567-27.575L1047.64,203.2A19.509,19.509,0,0,1,1075.23,203.179Zm27.04,165.977a19.518,19.518,0,0,1-.02,27.592L715.81,783.284a19.5,19.5,0,1,1-27.567-27.574L1074.68,369.173A19.51,19.51,0,0,1,1102.27,369.156Z" transform="translate(-490 -170)"/>
</svg>
