<svg xmlns="http://www.w3.org/2000/svg" viewBox="0 0 16.01 16.01"><defs><style>.\37 7adcec2-c4f6-4481-9356-56eded36a6eb{fill:#ababab;}</style></defs><g id="fed44992-ec8d-496a-8a67-c9aa41a74939" data-name="Layer 2"><path id="b914fc44-3f96-4377-b16b-3181dc5a1df5" d="M8.89 3.12A.38.38 0 0 1 9.17 3a.3.3 0 0 1 .25.12l3.47 3.47a.32.32 0 0 1 .12.25.38.38 0 0 1-.12.28L4.7 15.31.89 16a.72.72 0 0 1-.66-.22.72.72 0 0 1-.23-.66l.7-3.81zM2.76 13.25v-1.5H1.64l-.38 2 1 1 2-.37v-1.13zm1.13-2.63a.39.39 0 0 0 .31.13.4.4 0 0 0 .31-.13l4.81-4.81a.43.43 0 0 0 0-.62.39.39 0 0 0-.32-.13.4.4 0 0 0-.31.13L3.89 10a.4.4 0 0 0-.13.31.39.39 0 0 0 .13.31zm11.68-6.18A1.42 1.42 0 0 0 16 3.38a1.43 1.43 0 0 0-.44-1.07L13.7.44A1.46 1.46 0 0 0 12.64 0a1.48 1.48 0 0 0-1.07.44l-1.43 1.44a.35.35 0 0 0-.13.28.3.3 0 0 0 .13.25l3.47 3.47a.29.29 0 0 0 .25.12.41.41 0 0 0 .28-.12z" class="77adcec2-c4f6-4481-9356-56eded36a6eb" data-name="Layer 1"/></g></svg>