<svg xmlns="http://www.w3.org/2000/svg" width="759" height="759" viewBox="0 0 759 759">
  <metadata><?xpacket begin="﻿" id="W5M0MpCehiHzreSzNTczkc9d"?>
<x:xmpmeta xmlns:x="adobe:ns:meta/" x:xmptk="Adobe XMP Core 5.6-c140 79.160451, 2017/05/06-01:08:21        ">
   <rdf:RDF xmlns:rdf="http://www.w3.org/1999/02/22-rdf-syntax-ns#">
      <rdf:Description rdf:about=""/>
   </rdf:RDF>
</x:xmpmeta>
                                                                                                    
                                                                                                    
                                                                                                    
                                                                                                    
                                                                                                    
                                                                                                    
                                                                                                    
                                                                                                    
                                                                                                    
                                                                                                    
                                                                                                    
                                                                                                    
                                                                                                    
                                                                                                    
                                                                                                    
                                                                                                    
                                                                                                    
                                                                                                    
                                                                                                    
                                                                                                    
                           
<?xpacket end="w"?></metadata>
<defs>
    <style>
      .cls-1 {
        fill: #e9e9e9;
        fill-rule: evenodd;
      }
    </style>
  </defs>
  <path id="Rounded_Rectangle_961_copy_3" data-name="Rounded Rectangle 961 copy 3" class="cls-1" d="M1195.49,3025.65l1.74,1.74a29.538,29.538,0,0,1,0,41.78L673.172,3593.23a29.544,29.544,0,0,1-41.785,0l-1.741-1.74a29.54,29.54,0,0,1,0-41.78l524.064-524.06A29.538,29.538,0,0,1,1195.49,3025.65Zm43.53,130.58,1.74,1.74c11.54,11.54,12.98,28.8,3.21,38.57L800.538,3639.97c-9.764,9.77-27.033,8.33-38.572-3.21l-1.741-1.74c-11.538-11.54-12.978-28.81-3.214-38.57l443.439-443.44C1210.21,3143.25,1227.48,3144.69,1239.02,3156.23Zm130.58,43.52,1.74,1.74a29.55,29.55,0,0,1,0,41.79L847.278,3767.34a29.544,29.544,0,0,1-41.785,0l-1.741-1.74a29.552,29.552,0,0,1,0-41.79l524.058-524.06A29.55,29.55,0,0,1,1369.6,3199.75Z" transform="translate(-621 -3017)"/>
</svg>
