<svg xmlns="http://www.w3.org/2000/svg" viewBox="0 0 18 14"><defs><style>.e9f98a4d-e9e5-4977-92b4-bdf2d7181f59{fill:#ababab;}</style></defs><g id="cb28edf0-259e-417b-8601-aa1e251d8465" data-name="Layer 2"><path id="7f5ac2c2-732e-4799-9c19-97aae7561b27" d="M17.62 6h-.37v5h.37a.38.38 0 0 1 .38.38v2.24a.38.38 0 0 1-.38.38h-2.24a.38.38 0 0 1-.38-.38v-.37H8v.37a.38.38 0 0 1-.38.38H5.38a.38.38 0 0 1-.38-.38v-2.24a.38.38 0 0 1 .38-.38h.37v-.75H3v.37a.38.38 0 0 1-.38.38H.38a.37.37 0 0 1-.27-.11.37.37 0 0 1-.11-.27V8.38a.37.37 0 0 1 .11-.27A.37.37 0 0 1 .38 8h.37V3H.38a.37.37 0 0 1-.27-.11.37.37 0 0 1-.11-.27V.38A.37.37 0 0 1 .11.11.37.37 0 0 1 .38 0h2.24a.37.37 0 0 1 .27.11.37.37 0 0 1 .11.27v.37h7V.38a.37.37 0 0 1 .11-.27.37.37 0 0 1 .27-.11h2.24a.37.37 0 0 1 .27.11.37.37 0 0 1 .11.27v2.24a.38.38 0 0 1-.38.38h-.37v.75H15v-.37a.38.38 0 0 1 .38-.38h2.24a.38.38 0 0 1 .38.38v2.24a.38.38 0 0 1-.38.38zM2 2V1H1v1zm0 8V9H1v1zm1-1.25h7v-.37a.38.38 0 0 1 .38-.38h.37V3h-.37a.38.38 0 0 1-.38-.38v-.37H3v.37a.38.38 0 0 1-.38.38h-.37v5h.37a.38.38 0 0 1 .38.38zM7 13v-1H6v1zm8.75-2V6h-.37a.38.38 0 0 1-.38-.38v-.37h-2.75V8h.37a.38.38 0 0 1 .38.38v2.24a.38.38 0 0 1-.38.38h-2.24a.38.38 0 0 1-.38-.38v-.37H7.25V11h.37a.38.38 0 0 1 .38.38v.37h7v-.37a.38.38 0 0 1 .38-.38zM11 1v1h1V1zm0 8v1h1V9zm6-4V4h-1v1zm0 8v-1h-1v1z" class="e9f98a4d-e9e5-4977-92b4-bdf2d7181f59" data-name="Layer 1"/></g></svg>