<svg xmlns="http://www.w3.org/2000/svg" viewBox="0 0 56.04 18.23"><path d="M9.56 13.52a1.81 1.81 0 0 0-.7-1.52 9.26 9.26 0 0 0-2.53-1.12 17.76 17.76 0 0 1-2.9-1.18Q.53 8.14.53 5.47A4.1 4.1 0 0 1 1.31 3a5.06 5.06 0 0 1 2.23-1.7A8.59 8.59 0 0 1 6.82.7a7.57 7.57 0 0 1 3.26.67 5.22 5.22 0 0 1 2.22 1.86A4.89 4.89 0 0 1 13.09 6H9.57a2.33 2.33 0 0 0-.73-1.83 3.08 3.08 0 0 0-2.08-.67 3.24 3.24 0 0 0-2 .55A1.71 1.71 0 0 0 4 5.48a1.65 1.65 0 0 0 .84 1.4 9.36 9.36 0 0 0 2.47 1 10.8 10.8 0 0 1 4.37 2.24 4.47 4.47 0 0 1 1.37 3.33A4.09 4.09 0 0 1 11.41 17a7.32 7.32 0 0 1-4.51 1.23 8.67 8.67 0 0 1-3.58-.72 5.65 5.65 0 0 1-2.47-2A5.05 5.05 0 0 1 0 12.63h3.53q0 2.83 3.37 2.83a3.29 3.29 0 0 0 2-.51 1.66 1.66 0 0 0 .66-1.43zM19.42 18H16V0h3.4zm10.74 0a3.58 3.58 0 0 1-.34-1.14 4.08 4.08 0 0 1-3.2 1.37 4.51 4.51 0 0 1-3.09-1.07 3.46 3.46 0 0 1-1.22-2.72 3.58 3.58 0 0 1 1.49-3.1 7.4 7.4 0 0 1 4.32-1.09h1.56v-.72a2.09 2.09 0 0 0-.45-1.41 1.81 1.81 0 0 0-1.43-.53 2 2 0 0 0-1.34.41A1.42 1.42 0 0 0 26 9.13h-3.41a3.34 3.34 0 0 1 .68-2 4.38 4.38 0 0 1 1.92-1.47A6.94 6.94 0 0 1 28 5.09a5.56 5.56 0 0 1 3.7 1.17 4.12 4.12 0 0 1 1.38 3.31v5.5a6 6 0 0 0 .5 2.73v.2zm-2.8-2.36a2.93 2.93 0 0 0 1.38-.33 2.21 2.21 0 0 0 .94-.9v-2.18h-1.27c-1.69 0-2.6.59-2.71 1.76v.2a1.34 1.34 0 0 0 .45 1 1.69 1.69 0 0 0 1.21.45zM40.33 2.2v3.12h2.17V7.8h-2.17v6.33a1.51 1.51 0 0 0 .27 1 1.36 1.36 0 0 0 1 .31 5 5 0 0 0 1-.09v2.57a7.11 7.11 0 0 1-2.05.3c-2.38 0-3.59-1.19-3.64-3.59V7.8h-1.82V5.32h1.85V2.2zm10.49 16.03a6.23 6.23 0 0 1-4.54-1.71A6.07 6.07 0 0 1 44.53 12v-.32a7.54 7.54 0 0 1 .74-3.42 5.42 5.42 0 0 1 2.09-2.36 5.89 5.89 0 0 1 3.09-.81 5.23 5.23 0 0 1 4.09 1.64A6.63 6.63 0 0 1 56 11.38v1.38h-8a3.14 3.14 0 0 0 1 2 3 3 0 0 0 2 .74 3.65 3.65 0 0 0 3.06-1.41L55.77 16a5.07 5.07 0 0 1-2.07 1.68 6.75 6.75 0 0 1-2.88.55zm-.38-10.41a2.1 2.1 0 0 0-1.64.68 3.46 3.46 0 0 0-.8 1.95h4.71v-.27a2.57 2.57 0 0 0-.61-1.75 2.19 2.19 0 0 0-1.66-.61z"/></svg>