<svg xmlns="http://www.w3.org/2000/svg" width="52.5" height="42.01" viewBox="0 0 52.5 42.01"><defs><style>.c3ca25e8-db7a-4610-b595-84fd3d81f876{fill:#fff;}</style></defs><title>code-white</title><g id="aa1a5379-16e7-47a5-89b2-31b669560f0c" data-name="Layer 2"><g id="97308641-883d-4ca0-b7bc-af64cb596d94" data-name="Layer 1"><path class="c3ca25e8-db7a-4610-b595-84fd3d81f876" d="M13.54,32.75a.8.8,0,0,1-.66.33,1.23,1.23,0,0,1-.74-.24L.33,21.76A1,1,0,0,1,0,21a1,1,0,0,1,.33-.73L12.14,9.21A1.24,1.24,0,0,1,12.88,9a.8.8,0,0,1,.66.33l3.52,3.78a.87.87,0,0,1,.29.73,1,1,0,0,1-.29.66L9.6,21l7.46,6.57a1,1,0,0,1,.29.65.87.87,0,0,1-.29.74Zm9.35,9.19a.75.75,0,0,0,.73,0,1.27,1.27,0,0,0,.5-.61L35.27,2.73a.77.77,0,0,0,0-.74,1.21,1.21,0,0,0-.61-.49L29.61,0a1,1,0,0,0-.73.13,1.22,1.22,0,0,0-.5.61L17.23,39.32a.75.75,0,0,0,0,.73,1.22,1.22,0,0,0,.61.5Zm17.47-9.1a1.23,1.23,0,0,1-.74.24.8.8,0,0,1-.66-.33L35.44,29a.87.87,0,0,1-.29-.74,1,1,0,0,1,.29-.65L42.9,21l-7.46-6.56a1,1,0,0,1-.29-.66.87.87,0,0,1,.29-.73L39,9.29a1,1,0,0,1,.7-.33,1.17,1.17,0,0,1,.7.25L52.17,20.29a1,1,0,0,1,.33.73,1,1,0,0,1-.33.74Z"/></g></g></svg>