<svg xmlns="http://www.w3.org/2000/svg" width="18" height="14" viewBox="0 0 18 14"><defs><style>.e9f98a4d-e9e5-4977-92b4-bdf2d7181f59{fill:#ffffff;}</style></defs><title>design</title><g id="cb28edf0-259e-417b-8601-aa1e251d8465" data-name="Layer 2"><g id="7f5ac2c2-732e-4799-9c19-97aae7561b27" data-name="Layer 1"><path class="e9f98a4d-e9e5-4977-92b4-bdf2d7181f59" d="M17.62,6h-.37v5h.37a.38.38,0,0,1,.38.38v2.24a.38.38,0,0,1-.38.38H15.38a.38.38,0,0,1-.38-.38v-.37H8v.37a.38.38,0,0,1-.38.38H5.38A.38.38,0,0,1,5,13.62V11.38A.38.38,0,0,1,5.38,11h.37v-.75H3v.37a.38.38,0,0,1-.38.38H.38a.37.37,0,0,1-.27-.11A.37.37,0,0,1,0,10.62V8.38a.37.37,0,0,1,.11-.27A.37.37,0,0,1,.38,8H.75V3H.38a.37.37,0,0,1-.27-.11A.37.37,0,0,1,0,2.62V.38A.37.37,0,0,1,.11.11.37.37,0,0,1,.38,0H2.62a.37.37,0,0,1,.27.11A.37.37,0,0,1,3,.38V.75h7V.38a.37.37,0,0,1,.11-.27A.37.37,0,0,1,10.38,0h2.24a.37.37,0,0,1,.27.11A.37.37,0,0,1,13,.38V2.62a.38.38,0,0,1-.38.38h-.37v.75H15V3.38A.38.38,0,0,1,15.38,3h2.24a.38.38,0,0,1,.38.38V5.62a.38.38,0,0,1-.38.38ZM2,2V1H1V2Zm0,8V9H1v1ZM3,8.75h7V8.38A.38.38,0,0,1,10.38,8h.37V3h-.37A.38.38,0,0,1,10,2.62V2.25H3v.37A.38.38,0,0,1,2.62,3H2.25V8h.37A.38.38,0,0,1,3,8.38ZM7,13V12H6v1Zm8.75-2V6h-.37A.38.38,0,0,1,15,5.62V5.25H12.25V8h.37a.38.38,0,0,1,.38.38v2.24a.38.38,0,0,1-.38.38H10.38a.38.38,0,0,1-.38-.38v-.37H7.25V11h.37a.38.38,0,0,1,.38.38v.37h7v-.37a.38.38,0,0,1,.38-.38ZM11,1V2h1V1Zm0,8v1h1V9Zm6-4V4H16V5Zm0,8V12H16v1Z"/></g></g></svg>
